<svg width="38" height="38" viewBox="0 0 38 38" fill="none" xmlns="http://www.w3.org/2000/svg">
<g clip-path="url(#clip0_405_1234)">
<path d="M0 0H38V38H0V0Z" fill="#80A8A1"/>
<path d="M19.4158 26.5C17.9837 26.5012 16.5811 26.0936 15.3733 25.3253C14.1656 24.557 13.203 23.46 12.5992 22.1636C11.9954 20.8673 11.7754 19.4256 11.9652 18.0086C12.155 16.5915 12.7467 15.2582 13.6706 14.1658C14.5944 13.0734 15.8119 12.2674 17.1794 11.8429C18.547 11.4184 20.0076 11.393 21.3891 11.7698C22.7706 12.1466 24.0154 12.9099 24.9767 13.9695C25.938 15.0292 26.5758 16.3412 26.8149 17.7508H34.3826C34.0597 13.8942 32.2562 10.3115 29.349 7.75131C26.4417 5.19116 22.6558 3.85176 18.7824 4.01304C14.9091 4.17433 11.248 5.82383 8.56446 8.61678C5.88092 11.4097 4.38257 15.13 4.38257 19C4.38257 22.87 5.88092 26.5903 8.56446 29.3832C11.248 32.1762 14.9091 33.8257 18.7824 33.987C22.6558 34.1482 26.4417 32.8088 29.349 30.2487C32.2562 27.6885 34.0597 24.1058 34.3826 20.2492H26.8125C26.5189 21.9959 25.6148 23.5822 24.2606 24.7265C22.9065 25.8709 21.19 26.4992 19.4158 26.5Z" fill="white"/>
</g>
<defs>
<clipPath id="clip0_405_1234">
<rect width="38" height="38" rx="19" fill="white"/>
</clipPath>
</defs>
</svg>
