<svg width="38" height="38" viewBox="0 0 38 38" fill="none" xmlns="http://www.w3.org/2000/svg">
<g clip-path="url(#clip0_405_1243)">
<path d="M0 0H38V38H0V0Z" fill="#80A8A1"/>
<path d="M27.3938 16.5173C27.7907 13.8573 25.7788 12.4238 23.0259 11.4717L23.9189 7.86381L21.7402 7.31703L20.8705 10.8278C20.2899 10.6841 19.7079 10.5462 19.1246 10.414L20.0007 6.88003L17.822 6.33325L16.9311 9.93692C16.4663 9.83172 16.0025 9.72193 15.5399 9.60759L15.542 9.59703L12.5379 8.84125L11.9573 11.1846C11.9573 11.1846 13.5745 11.5583 13.5407 11.5815C14.4231 11.8031 14.5836 12.3921 14.5561 12.8587L13.5386 16.9669C13.6161 16.9858 13.6922 17.0097 13.7666 17.0387L13.5343 16.9817L12.1115 22.7366C12.0038 23.0068 11.7293 23.4121 11.1129 23.258C11.134 23.2897 9.52957 22.859 9.52957 22.859L8.44446 25.3713L11.2797 26.0848C11.8075 26.2178 12.3247 26.3571 12.8335 26.488L11.932 30.136L14.1065 30.6828L15.0016 27.0728C15.5969 27.2375 16.1732 27.3874 16.7369 27.5288L15.8481 31.1177L18.0268 31.6666L18.9282 28.027C22.6438 28.7343 25.4389 28.4493 26.6127 25.063C27.5627 22.3397 26.5683 20.7648 24.6135 19.7409C26.0363 19.4095 27.1088 18.4658 27.3938 16.5173ZM22.4158 23.5494C21.7423 26.2769 17.1866 24.8034 15.7088 24.4318L16.9058 19.6016C18.3836 19.9731 23.1209 20.7078 22.4158 23.5494ZM23.0913 16.4771C22.4749 18.9577 18.6833 17.6974 17.4547 17.3891L18.5377 13.0065C19.7685 13.3147 23.731 13.8931 23.0892 16.4793L23.0913 16.4771Z" fill="white"/>
</g>
<defs>
<clipPath id="clip0_405_1243">
<rect width="38" height="38" rx="19" fill="white"/>
</clipPath>
</defs>
</svg>
