<svg width="38" height="38" viewBox="0 0 38 38" fill="none" xmlns="http://www.w3.org/2000/svg">
<g clip-path="url(#clip0_405_1248)">
<path d="M19 38C29.4934 38 38 29.4934 38 19C38 8.50659 29.4934 0 19 0C8.50659 0 0 8.50659 0 19C0 29.4934 8.50659 38 19 38Z" fill="#80A8A1"/>
<path d="M19.5914 4.75V15.2831L28.4941 19.2612L19.5914 4.75Z" fill="white" fill-opacity="0.602"/>
<path d="M19.5914 4.75L10.6875 19.2612L19.5914 15.2831V4.75Z" fill="white"/>
<path d="M19.5914 26.0872V33.2443L28.5001 20.9192L19.5914 26.0872Z" fill="white" fill-opacity="0.602"/>
<path d="M19.5914 33.2443V26.086L10.6875 20.9192L19.5914 33.2443Z" fill="white"/>
<path d="M19.5914 24.4303L28.4941 19.2612L19.5914 15.2854V24.4303Z" fill="white" fill-opacity="0.2"/>
<path d="M10.6875 19.2612L19.5914 24.4303V15.2854L10.6875 19.2612Z" fill="white" fill-opacity="0.602"/>
</g>
<defs>
<clipPath id="clip0_405_1248">
<rect width="38" height="38" fill="white"/>
</clipPath>
</defs>
</svg>
