<svg width="38" height="38" viewBox="0 0 38 38" fill="none" xmlns="http://www.w3.org/2000/svg">
<g clip-path="url(#clip0_405_1260)">
<path d="M19 38C29.4934 38 38 29.4934 38 19C38 8.50659 29.4934 0 19 0C8.50659 0 0 8.50659 0 19C0 29.4934 8.50659 38 19 38Z" fill="#80A8A1"/>
<path d="M27.5408 13.6802C27.3957 13.8135 27.2069 13.8884 27.0105 13.8906H8.40257C7.74196 13.8906 7.40908 13.1309 7.86583 12.6855L10.9224 9.72076C11.0642 9.58182 11.2535 9.50283 11.4514 9.5H30.1303C30.7973 9.5 31.1238 10.2675 30.6593 10.7142L27.5408 13.6802ZM27.5408 28.2961C27.3947 28.427 27.2061 28.4996 27.0105 28.5H8.40257C7.74196 28.5 7.40908 27.7468 7.86583 27.3027L10.9224 24.3289C11.0656 24.1932 11.2548 24.1176 11.4514 24.1172H30.1303C30.7973 24.1172 31.1238 24.8769 30.6593 25.3223L27.5408 28.2961ZM27.5408 17.0164C27.3947 16.8854 27.2061 16.8129 27.0105 16.8125H8.40257C7.74196 16.8125 7.40908 17.5657 7.86583 18.0098L10.9224 20.9836C11.0656 21.1193 11.2548 21.1949 11.4514 21.1953H30.1303C30.7973 21.1953 31.1238 20.4356 30.6593 19.9902L27.5408 17.0164Z" fill="white"/>
</g>
<defs>
<clipPath id="clip0_405_1260">
<rect width="38" height="38" fill="white"/>
</clipPath>
</defs>
</svg>
