<svg width="1440" height="953" viewBox="0 0 1440 953" fill="none" xmlns="http://www.w3.org/2000/svg">
<g opacity="0.7">
<path opacity="0.1" d="M718.241 950.907L718.228 950.907L718.215 950.908C644.062 954.909 591.678 979.009 551.972 1014.04C512.28 1049.07 485.287 1094.99 461.865 1142.59C454.236 1158.09 446.988 1173.77 439.805 1189.3C424.92 1221.49 410.311 1253.09 393.161 1281.32C367.75 1323.14 336.813 1357.47 291.262 1375.25L291.26 1375.25C240.506 1395.2 194.201 1388.83 152.868 1365.54C111.515 1342.24 75.1248 1301.98 44.2777 1254.14C-17.4165 1158.44 -56.8407 1032.54 -69.4655 951.796C-82.0949 871.024 -87.6417 772.225 -67.1252 689.604C-46.6133 607.001 -0.0823203 540.655 91.4119 524.539C144.062 515.265 187.941 528.046 228.307 551.46C262.863 571.503 294.82 599.322 327.498 627.767C333.014 632.569 338.551 637.389 344.124 642.193C421.271 708.681 505.305 771.902 638.058 739.586L638.06 739.586C769.458 707.108 821.639 607.429 859.518 494.45C868.082 468.907 875.918 442.675 883.772 416.382C884.603 413.599 885.435 410.816 886.267 408.033C894.967 378.947 903.786 349.865 913.74 321.615C933.647 265.114 958.079 211.978 995.116 168.857L994.736 168.531L995.116 168.857C1059.01 94.388 1138.8 71.9084 1216.89 84.5427C1294.99 97.181 1371.41 144.964 1428.45 211.075L1428.83 210.749L1428.45 211.076C1534.15 333.398 1598.33 487.516 1627.58 643.018L1627.67 643.504L1627.93 643.458C1653.91 782.317 1648.14 920.402 1613.23 1057.52C1588.24 1155.25 1533.2 1249.72 1458.59 1304.01C1421.28 1331.16 1379.1 1348.25 1333.33 1350.7C1287.56 1353.15 1238.17 1340.96 1186.45 1309.48C1144.28 1283.83 1108.08 1248.6 1073.95 1210.15C1056.89 1190.93 1040.35 1170.91 1023.84 1150.89L1022.28 1149C1006.3 1129.61 990.339 1110.25 973.959 1091.64C906.305 1014.78 831.423 950.701 718.241 950.907Z" stroke="#F6FEFD"/>
<path opacity="0.1" d="M731.093 992.637L731.08 992.637L731.066 992.637C656.913 996.639 604.53 1020.74 564.824 1055.77C525.132 1090.8 498.138 1136.72 474.716 1184.32C467.087 1199.82 459.84 1215.5 452.657 1231.03C437.771 1263.22 423.163 1294.82 406.012 1323.05C380.601 1364.87 349.664 1399.2 304.113 1416.97L304.112 1416.98C253.357 1436.93 207.053 1430.56 165.72 1407.27C124.366 1383.97 87.9764 1343.71 57.1293 1295.86C-4.56494 1200.17 -43.9892 1074.27 -56.614 993.526C-69.2433 912.753 -74.7901 813.955 -54.2736 731.333C-33.7617 648.73 12.7692 582.385 104.263 566.268C156.914 556.994 200.793 569.776 241.158 593.189C275.715 613.233 307.671 641.051 340.349 669.497C345.865 674.299 351.402 679.119 356.976 683.922C434.123 750.41 518.157 813.631 650.909 781.316L650.911 781.315C782.31 748.837 834.491 649.159 872.37 536.18C880.934 510.637 888.77 484.405 896.624 458.111C897.455 455.329 898.286 452.546 899.119 449.763C907.819 420.676 916.638 391.595 926.591 363.345C946.499 306.843 970.93 253.707 1007.97 210.586L1007.59 210.261L1007.97 210.586C1071.86 136.117 1151.66 113.638 1229.74 126.272C1307.85 138.911 1384.27 186.693 1441.3 252.805L1441.68 252.478L1441.3 252.805C1547 375.127 1611.18 529.246 1640.43 684.748L1640.52 685.233L1640.78 685.188C1666.76 824.046 1660.99 962.131 1626.08 1099.25C1601.09 1196.98 1546.05 1291.45 1471.44 1345.74C1434.13 1372.89 1391.95 1389.98 1346.18 1392.43C1300.41 1394.88 1251.02 1382.69 1199.3 1351.21C1157.13 1325.56 1120.93 1290.32 1086.8 1251.88C1069.74 1232.66 1053.2 1212.64 1036.69 1192.62L1035.13 1190.73C1019.15 1171.34 1003.19 1151.98 986.81 1133.37C919.156 1056.51 844.275 992.431 731.093 992.637Z" stroke="#F6FEFD"/>
<path opacity="0.1" d="M743.94 1034.37L743.927 1034.37L743.914 1034.37C669.761 1038.37 617.377 1062.47 577.671 1097.51C537.979 1132.53 510.986 1178.45 487.564 1226.05C479.935 1241.55 472.687 1257.23 465.504 1272.76C450.619 1304.96 436.01 1336.55 418.86 1364.78C393.449 1406.6 362.512 1440.93 316.961 1458.71L316.96 1458.71C266.205 1478.66 219.9 1472.29 178.568 1449C137.214 1425.7 100.824 1385.44 69.9769 1337.6C8.28271 1241.9 -31.1415 1116 -43.7663 1035.26C-56.3957 954.486 -61.9425 855.687 -41.426 773.066C-20.914 690.463 25.6169 624.117 117.111 608.001C169.761 598.726 213.64 611.508 254.006 634.921C288.562 654.965 320.519 682.783 353.197 711.229C358.713 716.031 364.25 720.851 369.823 725.655C446.97 792.143 531.005 855.364 663.757 823.048L663.759 823.048C795.157 790.57 847.338 690.891 885.217 577.912C893.781 552.369 901.617 526.137 909.471 499.843C910.303 497.061 911.134 494.278 911.966 491.495C920.666 462.409 929.486 433.327 939.439 405.077C959.347 348.576 983.778 295.439 1020.81 252.319L1020.44 251.993L1020.81 252.319C1084.7 177.85 1164.5 155.37 1242.59 168.005C1320.69 180.643 1397.11 228.426 1454.15 294.537L1454.53 294.211L1454.15 294.538C1559.85 416.859 1624.02 570.978 1653.28 726.48L1653.37 726.966L1653.63 726.92C1679.61 865.779 1673.84 1003.86 1638.93 1140.98C1613.94 1238.71 1558.9 1333.19 1484.28 1387.48C1446.98 1414.62 1404.8 1431.71 1359.03 1434.16C1313.26 1436.61 1263.87 1424.42 1212.15 1392.94C1169.98 1367.29 1133.77 1332.06 1099.65 1293.61C1082.58 1274.39 1066.05 1254.37 1049.54 1234.35L1047.98 1232.46C1032 1213.07 1016.04 1193.71 999.658 1175.1C932.004 1098.24 857.122 1034.16 743.94 1034.37Z" stroke="#F6FEFD"/>
<path opacity="0.1" d="M756.792 1076.1L756.779 1076.1L756.766 1076.1C682.612 1080.1 630.229 1104.2 590.523 1139.24C550.831 1174.26 523.837 1220.18 500.415 1267.78C492.787 1283.28 485.539 1298.96 478.356 1314.49C463.47 1346.69 448.862 1378.28 431.712 1406.51C406.3 1448.33 375.364 1482.66 329.812 1500.44L329.811 1500.44C279.057 1520.39 232.752 1514.02 191.419 1490.73C150.065 1467.43 113.676 1427.17 82.8285 1379.33C21.1343 1283.63 -18.2899 1157.73 -30.9148 1076.99C-43.5441 996.215 -49.0909 897.417 -28.5744 814.795C-8.06247 732.192 38.4685 665.846 129.963 649.73C182.613 640.456 226.492 653.238 266.858 676.651C301.414 696.695 333.371 724.513 366.048 752.959C371.565 757.761 377.102 762.581 382.675 767.384C459.822 833.872 543.856 897.093 676.609 864.777L676.61 864.777C808.009 832.299 860.19 732.621 898.069 619.641C906.633 594.099 914.469 567.867 922.323 541.573C923.154 538.791 923.985 536.008 924.818 533.225C933.518 504.138 942.337 475.057 952.291 446.807C972.198 390.305 996.629 337.169 1033.67 294.048L1033.29 293.723L1033.67 294.048C1097.56 219.579 1177.35 197.1 1255.44 209.734C1333.55 222.372 1409.96 270.155 1467 336.267L1467.38 335.94L1467 336.267C1572.7 458.589 1636.88 612.708 1666.13 768.209L1666.22 768.695L1666.48 768.65C1692.46 907.508 1686.69 1045.59 1651.78 1182.71C1626.79 1280.44 1571.75 1374.92 1497.14 1429.21C1459.83 1456.35 1417.65 1473.44 1371.88 1475.89C1326.11 1478.34 1276.72 1466.15 1225 1434.67C1182.83 1409.02 1146.63 1373.79 1112.5 1335.34C1095.44 1316.12 1078.9 1296.1 1062.39 1276.08L1060.83 1274.19C1044.85 1254.8 1028.89 1235.44 1012.51 1216.83C944.855 1139.97 869.974 1075.89 756.792 1076.1Z" stroke="#F6FEFD"/>
<path opacity="0.1" d="M769.639 1117.83L769.626 1117.83L769.613 1117.83C695.46 1121.83 643.076 1145.93 603.371 1180.97C563.679 1215.99 536.685 1261.91 513.263 1309.51C505.634 1325.01 498.387 1340.69 491.204 1356.22C476.318 1388.42 461.71 1420.01 444.559 1448.24C419.148 1490.06 388.211 1524.39 342.66 1542.17L342.659 1542.17C291.904 1562.12 245.6 1555.75 204.267 1532.46C162.913 1509.16 126.523 1468.9 95.6762 1421.06C33.9819 1325.36 -5.44229 1199.46 -18.0671 1118.72C-30.6965 1037.94 -36.2432 939.146 -15.7267 856.525C4.78518 773.922 51.3161 707.576 142.81 691.46C195.46 682.185 239.339 694.967 279.705 718.38C314.262 738.424 346.218 766.242 378.896 794.688C384.412 799.49 389.949 804.31 395.523 809.114C472.67 875.602 556.704 938.823 689.456 906.507L689.458 906.507C820.856 874.029 873.037 774.35 910.917 661.371C919.481 635.828 927.316 609.596 935.171 583.302C936.002 580.52 936.833 577.737 937.666 574.954C946.366 545.868 955.185 516.786 965.138 488.536C985.046 432.035 1009.48 378.898 1046.51 335.778L1046.13 335.452L1046.51 335.778C1110.4 261.309 1190.2 238.829 1268.28 251.464C1346.39 264.102 1422.81 311.885 1479.85 377.996L1480.22 377.67L1479.85 377.997C1585.55 500.318 1649.72 654.437 1678.98 809.939L1679.07 810.425L1679.33 810.379C1705.31 949.238 1699.54 1087.32 1664.63 1224.44C1639.64 1322.17 1584.6 1416.65 1509.98 1470.94C1472.68 1498.08 1430.5 1515.17 1384.72 1517.62C1338.96 1520.07 1289.57 1507.88 1237.85 1476.4C1195.68 1450.75 1159.47 1415.52 1125.35 1377.07C1108.28 1357.85 1091.75 1337.83 1075.24 1317.81L1073.68 1315.92C1057.7 1296.53 1041.74 1277.17 1025.36 1258.56C957.703 1181.7 882.822 1117.62 769.639 1117.83Z" stroke="#F6FEFD"/>
<path opacity="0.1" d="M782.491 1159.56L782.478 1159.56L782.465 1159.56C708.312 1163.56 655.928 1187.66 616.222 1222.7C576.53 1257.72 549.537 1303.65 526.115 1351.24C518.486 1366.75 511.238 1382.42 504.055 1397.96C489.17 1430.15 474.561 1461.74 457.411 1489.97C432 1531.79 401.063 1566.13 355.512 1583.9L355.51 1583.9C304.756 1603.85 258.451 1597.49 217.118 1574.2C175.765 1550.89 139.375 1510.64 108.528 1462.79C46.8335 1367.09 7.40927 1241.19 -5.21554 1160.45C-17.8449 1079.68 -23.3917 980.879 -2.87519 898.257C17.6367 815.654 64.1677 749.308 155.662 733.192C208.312 723.918 252.191 736.7 292.557 760.113C327.113 780.157 359.07 807.975 391.748 836.421C397.264 841.223 402.801 846.043 408.374 850.846C485.521 917.334 569.555 980.555 702.308 948.239L702.31 948.239C833.708 915.761 885.889 816.083 923.768 703.103C932.332 677.561 940.168 651.328 948.022 625.035C948.853 622.252 949.685 619.469 950.517 616.686C959.217 587.6 968.036 558.518 977.99 530.269C997.897 473.767 1022.33 420.631 1059.37 377.51L1058.99 377.184L1059.37 377.51C1123.26 303.041 1203.05 280.562 1281.14 293.196C1359.24 305.834 1435.66 353.617 1492.7 419.729L1493.08 419.402L1492.7 419.729C1598.4 542.051 1662.58 696.169 1691.83 851.671L1691.92 852.157L1692.18 852.112C1718.16 990.97 1712.39 1129.06 1677.48 1266.18C1652.49 1363.9 1597.45 1458.38 1522.84 1512.67C1485.53 1539.81 1443.35 1556.9 1397.58 1559.35C1351.81 1561.8 1302.42 1549.61 1250.7 1518.14C1208.53 1492.48 1172.33 1457.25 1138.2 1418.8C1121.14 1399.58 1104.6 1379.57 1088.09 1359.55L1086.53 1357.65C1070.55 1338.26 1054.59 1318.9 1038.21 1300.29C970.555 1223.43 895.673 1159.35 782.491 1159.56Z" stroke="#F6FEFD"/>
<path opacity="0.1" d="M795.339 1201.29L795.326 1201.29L795.313 1201.29C721.159 1205.29 668.776 1229.39 629.07 1264.43C589.378 1299.45 562.384 1345.38 538.962 1392.97C531.333 1408.48 524.086 1424.15 516.903 1439.68C502.017 1471.88 487.409 1503.47 470.259 1531.7C444.847 1573.52 413.91 1607.86 368.359 1625.63L368.358 1625.63C317.604 1645.58 271.299 1639.22 229.966 1615.93C188.612 1592.62 152.222 1552.37 121.375 1504.52C59.6812 1408.82 20.2569 1282.92 7.63212 1202.18C-4.99725 1121.41 -10.544 1022.61 9.97247 939.987C30.4844 857.384 77.0153 791.038 168.51 774.921C221.16 765.647 265.039 778.429 305.404 801.842C339.961 821.886 371.917 849.704 404.595 878.15C410.112 882.952 415.648 887.772 421.222 892.576C498.369 959.064 582.403 1022.28 715.155 989.969L715.157 989.968C846.556 957.491 898.737 857.812 936.616 744.833C945.18 719.29 953.016 693.058 960.87 666.764C961.701 663.982 962.532 661.199 963.365 658.416C972.065 629.33 980.884 600.248 990.838 571.998C1010.75 515.496 1035.18 462.36 1072.21 419.24L1071.83 418.914L1072.21 419.239C1136.1 344.771 1215.9 322.291 1293.98 334.925C1372.09 347.564 1448.51 395.347 1505.55 461.458L1505.92 461.132L1505.55 461.458C1611.25 583.78 1675.42 737.899 1704.68 893.401L1704.77 893.887L1705.03 893.841C1731.01 1032.7 1725.24 1170.78 1690.33 1307.9C1665.34 1405.63 1610.3 1500.11 1535.68 1554.4C1498.38 1581.54 1456.19 1598.63 1410.42 1601.08C1364.65 1603.53 1315.26 1591.34 1263.55 1559.86C1221.38 1534.21 1185.17 1498.98 1151.05 1460.53C1133.98 1441.31 1117.44 1421.29 1100.94 1401.27L1099.38 1399.38C1083.4 1379.99 1067.44 1360.63 1051.06 1342.02C983.402 1265.16 908.521 1201.08 795.339 1201.29Z" stroke="#F6FEFD"/>
<path opacity="0.1" d="M808.19 1243.02L808.177 1243.02L808.164 1243.02C734.011 1247.02 681.627 1271.12 641.921 1306.16C602.229 1341.18 575.236 1387.1 551.814 1434.7C544.185 1450.21 536.937 1465.88 529.754 1481.41C514.869 1513.61 500.26 1545.2 483.11 1573.43C457.699 1615.25 426.762 1649.59 381.211 1667.36L381.21 1667.36C330.455 1687.31 284.15 1680.95 242.818 1657.65C201.464 1634.35 165.074 1594.09 134.227 1546.25C72.5327 1450.55 33.1085 1324.65 20.4837 1243.91C7.85431 1163.14 2.30754 1064.34 22.824 981.716C43.336 899.113 89.8669 832.767 181.361 816.651C234.011 807.377 277.89 820.158 318.256 843.572C352.812 863.615 384.769 891.434 417.447 919.88C422.963 924.682 428.5 929.502 434.073 934.305C511.22 1000.79 595.255 1064.01 728.007 1031.7L728.009 1031.7C859.407 999.22 911.588 899.542 949.467 786.562C958.031 761.02 965.867 734.787 973.721 708.494C974.553 705.711 975.384 702.928 976.216 700.145C984.916 671.059 993.736 641.977 1003.69 613.728C1023.6 557.226 1048.03 504.09 1085.06 460.969L1084.69 460.643L1085.06 460.969C1148.95 386.5 1228.75 364.021 1306.84 376.655C1384.94 389.293 1461.36 437.076 1518.4 503.188L1518.78 502.861L1518.4 503.188C1624.1 625.51 1688.27 779.628 1717.53 935.13L1717.62 935.616L1717.88 935.571C1743.86 1074.43 1738.09 1212.51 1703.18 1349.63C1678.19 1447.36 1623.15 1541.84 1548.53 1596.13C1511.23 1623.27 1469.05 1640.36 1423.28 1642.81C1377.51 1645.26 1328.12 1633.07 1276.4 1601.59C1234.23 1575.94 1198.02 1540.71 1163.9 1502.26C1146.83 1483.04 1130.3 1463.02 1113.79 1443L1112.23 1441.11C1096.25 1421.72 1080.29 1402.36 1063.91 1383.75C996.254 1306.89 921.372 1242.81 808.19 1243.02Z" stroke="#F6FEFD"/>
<path opacity="0.1" d="M821.042 1284.75L821.029 1284.75L821.016 1284.75C746.862 1288.75 694.479 1312.85 654.773 1347.89C615.081 1382.91 588.087 1428.83 564.665 1476.43C557.037 1491.93 549.789 1507.61 542.606 1523.14C527.72 1555.34 513.112 1586.93 495.962 1615.16C470.55 1656.98 439.614 1691.31 394.062 1709.09L394.061 1709.09C343.307 1729.04 297.002 1722.67 255.669 1699.38C214.315 1676.08 177.926 1635.82 147.079 1587.98C85.3843 1492.28 45.9601 1366.38 33.3352 1285.64C20.7059 1204.87 15.1591 1106.07 35.6756 1023.45C56.1875 940.843 102.718 874.497 194.213 858.38C246.863 849.106 290.742 861.888 331.108 885.301C365.664 905.345 397.621 933.163 430.298 961.609C435.815 966.411 441.352 971.231 446.925 976.035C524.072 1042.52 608.106 1105.74 740.859 1073.43L740.86 1073.43C872.259 1040.95 924.44 941.271 962.319 828.292C970.883 802.749 978.719 776.517 986.573 750.223C987.404 747.441 988.235 744.658 989.068 741.875C997.768 712.789 1006.59 683.707 1016.54 655.457C1036.45 598.955 1060.88 545.819 1097.92 502.699L1097.54 502.373L1097.92 502.698C1161.81 428.23 1241.6 405.75 1319.69 418.384C1397.8 431.023 1474.21 478.806 1531.25 544.917L1531.63 544.591L1531.25 544.917C1636.95 667.239 1701.13 821.358 1730.38 976.86L1730.47 977.346L1730.73 977.3C1756.71 1116.16 1750.94 1254.24 1716.03 1391.36C1691.04 1489.09 1636 1583.57 1561.39 1637.86C1524.08 1665 1481.9 1682.09 1436.13 1684.54C1390.36 1686.99 1340.97 1674.8 1289.25 1643.32C1247.08 1617.67 1210.88 1582.44 1176.75 1543.99C1159.69 1524.77 1143.15 1504.75 1126.64 1484.73L1125.08 1482.84C1109.1 1463.45 1093.14 1444.09 1076.76 1425.48C1009.11 1348.62 934.224 1284.54 821.042 1284.75Z" stroke="#F6FEFD"/>
<path opacity="0.1" d="M833.889 1326.48L833.876 1326.48L833.863 1326.48C759.71 1330.48 707.326 1354.58 667.621 1389.62C627.929 1424.64 600.935 1470.57 577.513 1518.16C569.884 1533.67 562.637 1549.34 555.454 1564.88C540.568 1597.07 525.96 1628.66 508.809 1656.89C483.398 1698.72 452.461 1733.05 406.91 1750.82L406.909 1750.82C356.154 1770.77 309.85 1764.41 268.517 1741.12C227.163 1717.81 190.773 1677.56 159.926 1629.71C98.2319 1534.01 58.8077 1408.11 46.1829 1327.37C33.5535 1246.6 28.0068 1147.8 48.5233 1065.18C69.0352 982.575 115.566 916.229 207.06 900.113C259.71 890.839 303.589 903.62 343.955 927.034C378.512 947.077 410.468 974.896 443.146 1003.34C448.662 1008.14 454.199 1012.96 459.773 1017.77C536.92 1084.26 620.954 1147.48 753.706 1115.16L753.708 1115.16C885.106 1082.68 937.287 983.004 975.167 870.024C983.731 844.481 991.566 818.249 999.421 791.956C1000.25 789.173 1001.08 786.39 1001.92 783.607C1010.62 754.521 1019.43 725.439 1029.39 697.19C1049.3 640.688 1073.73 587.552 1110.76 544.431L1110.38 544.105L1110.76 544.431C1174.65 469.962 1254.45 447.483 1332.53 460.117C1410.64 472.755 1487.06 520.538 1544.1 586.65L1544.47 586.323L1544.1 586.65C1649.8 708.972 1713.97 863.09 1743.23 1018.59L1743.32 1019.08L1743.58 1019.03C1769.56 1157.89 1763.79 1295.98 1728.88 1433.1C1703.89 1530.82 1648.85 1625.3 1574.23 1679.59C1536.93 1706.73 1494.75 1723.82 1448.97 1726.27C1403.21 1728.72 1353.82 1716.54 1302.1 1685.06C1259.93 1659.4 1223.72 1624.17 1189.6 1585.73C1172.53 1566.5 1156 1546.49 1139.49 1526.47L1137.93 1524.57C1121.95 1505.19 1105.99 1485.82 1089.61 1467.21C1021.95 1390.36 947.072 1326.28 833.889 1326.48Z" stroke="#F6FEFD"/>
<path opacity="0.1" d="M846.741 1368.21L846.728 1368.21L846.715 1368.21C772.562 1372.21 720.178 1396.31 680.472 1431.35C640.78 1466.37 613.787 1512.3 590.365 1559.89C582.736 1575.4 575.488 1591.07 568.305 1606.61C553.42 1638.8 538.811 1670.39 521.661 1698.62C496.25 1740.44 465.313 1774.78 419.762 1792.55L419.76 1792.55C369.006 1812.5 322.701 1806.14 281.368 1782.85C240.015 1759.54 203.625 1719.29 172.778 1671.44C111.083 1575.74 71.6593 1449.84 59.0345 1369.1C46.4051 1288.33 40.8583 1189.53 61.3748 1106.91C81.8867 1024.3 128.418 957.959 219.912 941.842C272.562 932.568 316.441 945.35 356.807 968.763C391.363 988.807 423.32 1016.63 455.998 1045.07C461.514 1049.87 467.051 1054.69 472.624 1059.5C549.771 1125.98 633.805 1189.21 766.558 1156.89L766.56 1156.89C897.958 1124.41 950.139 1024.73 988.018 911.754C996.582 886.211 1004.42 859.979 1012.27 833.685C1013.1 830.903 1013.93 828.12 1014.77 825.337C1023.47 796.251 1032.29 767.169 1042.24 738.919C1062.15 682.417 1086.58 629.281 1123.62 586.161L1123.24 585.835L1123.62 586.16C1187.51 511.692 1267.3 489.212 1345.39 501.846C1423.49 514.485 1499.91 562.268 1556.95 628.379L1557.33 628.052L1556.95 628.379C1662.65 750.701 1726.83 904.82 1756.08 1060.32L1756.17 1060.81L1756.43 1060.76C1782.41 1199.62 1776.64 1337.71 1741.73 1474.83C1716.74 1572.55 1661.7 1667.03 1587.09 1721.32C1549.78 1748.46 1507.6 1765.55 1461.83 1768C1416.06 1770.45 1366.67 1758.26 1314.95 1726.79C1272.78 1701.13 1236.58 1665.9 1202.45 1627.45C1185.39 1608.23 1168.85 1588.22 1152.34 1568.2L1150.78 1566.3C1134.8 1546.91 1118.84 1527.55 1102.46 1508.94C1034.8 1432.08 959.923 1368.01 846.741 1368.21Z" stroke="#F6FEFD"/>
<path opacity="0.1" d="M859.589 1409.94L859.576 1409.94L859.563 1409.94C785.409 1413.94 733.026 1438.04 693.32 1473.08C653.628 1508.1 626.634 1554.03 603.212 1601.62C595.583 1617.13 588.336 1632.8 581.153 1648.33C566.267 1680.53 551.659 1712.12 534.509 1740.35C509.097 1782.17 478.16 1816.51 432.609 1834.28L432.608 1834.28C381.854 1854.23 335.549 1847.87 294.216 1824.58C252.862 1801.27 216.472 1761.02 185.625 1713.17C123.931 1617.47 84.5069 1491.57 71.8821 1410.83C59.2527 1330.06 53.706 1231.26 74.2225 1148.64C94.7344 1066.03 141.265 999.688 232.76 983.572C285.41 974.298 329.289 987.079 369.654 1010.49C404.211 1030.54 436.167 1058.35 468.845 1086.8C474.362 1091.6 479.898 1096.42 485.472 1101.23C562.619 1167.71 646.653 1230.93 779.405 1198.62L779.407 1198.62C910.806 1166.14 962.987 1066.46 1000.87 953.483C1009.43 927.94 1017.27 901.708 1025.12 875.415C1025.95 872.632 1026.78 869.849 1027.61 867.066C1036.31 837.98 1045.13 808.898 1055.09 780.649C1075 724.147 1099.43 671.011 1136.46 627.89L1136.08 627.564L1136.46 627.89C1200.35 553.421 1280.15 530.942 1358.23 543.576C1436.34 556.214 1512.76 603.997 1569.8 670.109L1570.17 669.782L1569.8 670.109C1675.5 792.431 1739.67 946.549 1768.93 1102.05L1769.02 1102.54L1769.28 1102.49C1795.26 1241.35 1789.49 1379.44 1754.58 1516.56C1729.59 1614.28 1674.55 1708.76 1599.93 1763.05C1562.63 1790.19 1520.44 1807.28 1474.67 1809.73C1428.9 1812.18 1379.51 1799.99 1327.8 1768.52C1285.63 1742.86 1249.42 1707.63 1215.3 1669.18C1198.23 1649.96 1181.69 1629.95 1165.19 1609.92L1163.63 1608.03C1147.65 1588.64 1131.69 1569.28 1115.31 1550.67C1047.65 1473.81 972.771 1409.73 859.589 1409.94Z" stroke="#F6FEFD"/>
<path opacity="0.1" d="M872.44 1451.67L872.427 1451.67L872.414 1451.67C798.261 1455.68 745.877 1479.77 706.171 1514.81C666.479 1549.83 639.486 1595.76 616.064 1643.36C608.435 1658.86 601.187 1674.53 594.004 1690.07C579.119 1722.26 564.51 1753.85 547.36 1782.08C521.949 1823.91 491.012 1858.24 445.461 1876.01L445.46 1876.01C394.705 1895.96 348.4 1889.6 307.068 1866.31C265.714 1843.01 229.324 1802.75 198.477 1754.9C136.783 1659.21 97.3585 1533.31 84.7337 1452.56C72.1043 1371.79 66.5575 1272.99 87.074 1190.37C107.586 1107.77 154.117 1041.42 245.611 1025.3C298.261 1016.03 342.14 1028.81 382.506 1052.23C417.062 1072.27 449.019 1100.09 481.697 1128.53C487.213 1133.34 492.75 1138.15 498.323 1142.96C575.47 1209.45 659.505 1272.67 792.257 1240.35L792.259 1240.35C923.657 1207.87 975.838 1108.19 1013.72 995.216C1022.28 969.673 1030.12 943.441 1037.97 917.147C1038.8 914.365 1039.63 911.582 1040.47 908.799C1049.17 879.713 1057.99 850.631 1067.94 822.381C1087.85 765.879 1112.28 712.743 1149.31 669.623L1148.94 669.297L1149.31 669.622C1213.2 595.154 1293 572.674 1371.09 585.308C1449.19 597.947 1525.61 645.73 1582.65 711.841L1583.03 711.514L1582.65 711.841C1688.35 834.163 1752.52 988.282 1781.78 1143.78L1781.87 1144.27L1782.13 1144.22C1808.11 1283.08 1802.34 1421.17 1767.43 1558.29C1742.44 1656.01 1687.4 1750.49 1612.78 1804.78C1575.48 1831.92 1533.3 1849.01 1487.53 1851.46C1441.76 1853.92 1392.37 1841.73 1340.65 1810.25C1298.48 1784.6 1262.27 1749.36 1228.15 1710.92C1211.08 1691.7 1194.55 1671.68 1178.04 1651.66L1176.48 1649.76C1160.5 1630.38 1144.54 1611.01 1128.16 1592.4C1060.5 1515.55 985.622 1451.47 872.44 1451.67Z" stroke="#F6FEFD"/>
<path opacity="0.1" d="M885.288 1493.4L885.275 1493.4L885.262 1493.4C811.109 1497.4 758.725 1521.5 719.019 1556.54C679.327 1591.56 652.334 1637.49 628.912 1685.08C621.283 1700.59 614.035 1716.26 606.852 1731.8C591.967 1763.99 577.358 1795.58 560.208 1823.81C534.797 1865.64 503.86 1899.97 458.308 1917.74L458.307 1917.74C407.553 1937.69 361.248 1931.33 319.915 1908.04C278.562 1884.73 242.172 1844.48 211.325 1796.63C149.63 1700.94 110.206 1575.04 97.5813 1494.29C84.952 1413.52 79.4052 1314.72 99.9217 1232.1C120.434 1149.5 166.965 1083.15 258.459 1067.03C311.109 1057.76 354.988 1070.54 395.354 1093.95C429.91 1114 461.867 1141.82 494.544 1170.26C500.061 1175.06 505.598 1179.88 511.171 1184.69C588.318 1251.18 672.352 1314.4 805.105 1282.08L805.106 1282.08C936.505 1249.6 988.686 1149.92 1026.57 1036.95C1035.13 1011.4 1042.96 985.17 1050.82 958.877C1051.65 956.094 1052.48 953.311 1053.31 950.528C1062.01 921.442 1070.83 892.36 1080.79 864.111C1100.69 807.609 1125.13 754.473 1162.16 711.352L1161.78 711.026L1162.16 711.352C1226.05 636.883 1305.85 614.403 1383.93 627.038C1462.04 639.676 1538.46 687.459 1595.49 753.57L1595.87 753.244L1595.5 753.571C1701.2 875.893 1765.37 1030.01 1794.63 1185.51L1794.72 1186L1794.98 1185.95C1820.96 1324.81 1815.19 1462.9 1780.28 1600.02C1755.29 1697.74 1700.25 1792.22 1625.63 1846.51C1588.33 1873.65 1546.14 1890.74 1500.37 1893.19C1454.6 1895.64 1405.21 1883.46 1353.5 1851.98C1311.33 1826.32 1275.12 1791.09 1241 1752.65C1223.93 1733.42 1207.39 1713.41 1190.89 1693.39L1189.33 1691.49C1173.35 1672.11 1157.39 1652.74 1141.01 1634.13C1073.35 1557.28 998.47 1493.2 885.288 1493.4Z" stroke="#F6FEFD"/>
<path opacity="0.1" d="M898.139 1535.13L898.126 1535.13L898.113 1535.13C823.96 1539.13 771.576 1563.23 731.871 1598.27C692.179 1633.29 665.185 1679.22 641.763 1726.81C634.134 1742.32 626.887 1757.99 619.704 1773.53C604.818 1805.72 590.21 1837.31 573.059 1865.54C547.648 1907.37 516.711 1941.7 471.16 1959.47L471.159 1959.47C420.404 1979.42 374.1 1973.06 332.767 1949.77C291.413 1926.46 255.023 1886.21 224.176 1838.36C162.482 1742.66 123.058 1616.76 110.433 1536.02C97.8035 1455.25 92.2568 1356.45 112.773 1273.83C133.285 1191.23 179.816 1124.88 271.31 1108.76C323.96 1099.49 367.839 1112.27 408.205 1135.68C442.762 1155.73 474.718 1183.55 507.396 1211.99C512.912 1216.79 518.449 1221.61 524.023 1226.42C601.17 1292.91 685.204 1356.13 817.956 1323.81L817.958 1323.81C949.356 1291.33 1001.54 1191.65 1039.42 1078.67C1047.98 1053.13 1055.82 1026.9 1063.67 1000.61C1064.5 997.824 1065.33 995.041 1066.17 992.258C1074.87 963.172 1083.68 934.09 1093.64 905.84C1113.55 849.338 1137.98 796.202 1175.01 753.081L1174.63 752.756L1175.01 753.081C1238.9 678.613 1318.7 656.133 1396.78 668.767C1474.89 681.406 1551.31 729.189 1608.35 795.3L1608.72 794.973L1608.35 795.3C1714.05 917.622 1778.22 1071.74 1807.48 1227.24L1807.57 1227.73L1807.83 1227.68C1833.81 1366.54 1828.04 1504.63 1793.13 1641.75C1768.14 1739.47 1713.1 1833.95 1638.48 1888.24C1601.18 1915.38 1559 1932.47 1513.22 1934.92C1467.46 1937.37 1418.07 1925.19 1366.35 1893.71C1324.18 1868.05 1287.97 1832.82 1253.85 1794.38C1236.78 1775.15 1220.25 1755.14 1203.74 1735.12L1202.18 1733.22C1186.2 1713.84 1170.24 1694.47 1153.86 1675.86C1086.2 1599.01 1011.32 1534.93 898.139 1535.13Z" stroke="#F6FEFD"/>
<path opacity="0.1" d="M910.991 1576.86L910.978 1576.86L910.965 1576.86C836.812 1580.87 784.428 1604.97 744.722 1640C705.03 1675.02 678.037 1720.95 654.615 1768.55C646.986 1784.05 639.738 1799.72 632.555 1815.26C617.67 1847.45 603.061 1879.05 585.911 1907.27C560.5 1949.1 529.563 1983.43 484.012 2001.2L484.01 2001.2C433.256 2021.15 386.951 2014.79 345.618 1991.5C304.265 1968.2 267.875 1927.94 237.028 1880.09C175.333 1784.4 135.909 1658.5 123.284 1577.75C110.655 1496.98 105.108 1398.18 125.625 1315.56C146.137 1232.96 192.668 1166.61 284.162 1150.5C336.812 1141.22 380.691 1154 421.057 1177.42C455.613 1197.46 487.57 1225.28 520.248 1253.72C525.764 1258.53 531.301 1263.35 536.874 1268.15C614.021 1334.64 698.055 1397.86 830.808 1365.54L830.81 1365.54C962.208 1333.06 1014.39 1233.39 1052.27 1120.41C1060.83 1094.86 1068.67 1068.63 1076.52 1042.34C1077.35 1039.56 1078.18 1036.77 1079.02 1033.99C1087.72 1004.9 1096.54 975.822 1106.49 947.572C1126.4 891.07 1150.83 837.934 1187.87 794.813L1187.49 794.488L1187.87 794.813C1251.76 720.345 1331.55 697.865 1409.64 710.499C1487.74 723.138 1564.16 770.92 1621.2 837.032L1621.58 836.705L1621.2 837.032C1726.9 959.354 1791.08 1113.47 1820.33 1268.97L1820.42 1269.46L1820.68 1269.41C1846.66 1408.27 1840.89 1546.36 1805.98 1683.48C1780.99 1781.2 1725.95 1875.68 1651.34 1929.97C1614.03 1957.11 1571.85 1974.21 1526.08 1976.66C1480.31 1979.11 1430.92 1966.92 1379.2 1935.44C1337.03 1909.79 1300.83 1874.55 1266.7 1836.11C1249.64 1816.89 1233.1 1796.87 1216.59 1776.85L1215.03 1774.95C1199.05 1755.57 1183.09 1736.2 1166.71 1717.59C1099.05 1640.74 1024.17 1576.66 910.991 1576.86Z" stroke="#F6FEFD"/>
<path opacity="0.1" d="M923.839 1618.59L923.826 1618.59L923.813 1618.59C849.659 1622.6 797.276 1646.7 757.57 1681.73C717.878 1716.75 690.884 1762.68 667.462 1810.28C659.833 1825.78 652.586 1841.45 645.403 1856.99C630.517 1889.18 615.909 1920.78 598.759 1949C573.347 1990.83 542.41 2025.16 496.859 2042.93L496.858 2042.93C446.104 2062.88 399.799 2056.52 358.466 2033.23C317.112 2009.93 280.722 1969.67 249.875 1921.82C188.181 1826.13 148.757 1700.23 136.132 1619.48C123.503 1538.71 117.956 1439.91 138.472 1357.29C158.984 1274.69 205.515 1208.34 297.01 1192.23C349.66 1182.95 393.539 1195.73 433.904 1219.15C468.461 1239.19 500.417 1267.01 533.095 1295.45C538.612 1300.26 544.148 1305.08 549.722 1309.88C626.869 1376.37 710.903 1439.59 843.655 1407.27L843.657 1407.27C975.056 1374.79 1027.24 1275.12 1065.12 1162.14C1073.68 1136.59 1081.52 1110.36 1089.37 1084.07C1090.2 1081.29 1091.03 1078.5 1091.86 1075.72C1100.56 1046.63 1109.38 1017.55 1119.34 989.302C1139.25 932.8 1163.68 879.664 1200.71 836.543L1200.33 836.218L1200.71 836.543C1264.6 762.075 1344.4 739.595 1422.48 752.229C1500.59 764.868 1577.01 812.65 1634.05 878.762L1634.42 878.435L1634.05 878.762C1739.75 1001.08 1803.92 1155.2 1833.18 1310.7L1833.27 1311.19L1833.53 1311.14C1859.51 1450 1853.74 1588.09 1818.83 1725.21C1793.84 1822.93 1738.8 1917.41 1664.18 1971.7C1626.88 1998.84 1584.69 2015.94 1538.92 2018.39C1493.15 2020.84 1443.76 2008.65 1392.05 1977.17C1349.88 1951.52 1313.67 1916.28 1279.55 1877.84C1262.48 1858.62 1245.94 1838.6 1229.44 1818.58L1227.88 1816.68C1211.9 1797.3 1195.94 1777.93 1179.56 1759.32C1111.9 1682.47 1037.02 1618.39 923.839 1618.59Z" stroke="#F6FEFD"/>
<path opacity="0.1" d="M936.69 1660.32L936.677 1660.32L936.664 1660.32C862.511 1664.33 810.127 1688.43 770.421 1723.46C730.729 1758.48 703.736 1804.41 680.314 1852.01C672.685 1867.51 665.437 1883.18 658.254 1898.72C643.369 1930.91 628.76 1962.5 611.61 1990.73C586.199 2032.56 555.262 2066.89 509.711 2084.66L509.71 2084.66C458.955 2104.61 412.65 2098.25 371.318 2074.96C329.964 2051.66 293.574 2011.4 262.727 1963.55C201.033 1867.86 161.608 1741.96 148.984 1661.21C136.354 1580.44 130.808 1481.64 151.324 1399.02C171.836 1316.42 218.367 1250.07 309.861 1233.95C362.511 1224.68 406.39 1237.46 446.756 1260.88C481.312 1280.92 513.269 1308.74 545.947 1337.18C551.463 1341.99 557 1346.81 562.573 1351.61C639.72 1418.1 723.755 1481.32 856.507 1449L856.509 1449C987.907 1416.52 1040.09 1316.85 1077.97 1203.87C1086.53 1178.32 1094.37 1152.09 1102.22 1125.8C1103.05 1123.02 1103.88 1120.23 1104.72 1117.45C1113.42 1088.36 1122.24 1059.28 1132.19 1031.03C1152.1 974.53 1176.53 921.394 1213.56 878.273L1213.19 877.947L1213.56 878.273C1277.45 803.804 1357.25 781.324 1435.34 793.959C1513.44 806.597 1589.86 854.38 1646.9 920.491L1647.28 920.165L1646.9 920.492C1752.6 1042.81 1816.77 1196.93 1846.03 1352.43L1846.12 1352.92L1846.38 1352.87C1872.36 1491.73 1866.59 1629.82 1831.68 1766.94C1806.69 1864.66 1751.65 1959.14 1677.03 2013.43C1639.73 2040.57 1597.55 2057.66 1551.78 2060.12C1506.01 2062.57 1456.62 2050.38 1404.9 2018.9C1362.73 1993.25 1326.52 1958.01 1292.4 1919.57C1275.33 1900.35 1258.8 1880.33 1242.29 1860.31L1240.73 1858.41C1224.75 1839.03 1208.79 1819.66 1192.41 1801.05C1124.75 1724.2 1049.87 1660.12 936.69 1660.32Z" stroke="#F6FEFD"/>
<path opacity="0.1" d="M949.538 1702.06L949.525 1702.06L949.512 1702.06C875.359 1706.06 822.975 1730.16 783.269 1765.19C743.577 1800.22 716.584 1846.14 693.162 1893.74C685.533 1909.24 678.285 1924.91 671.102 1940.45C656.217 1972.64 641.608 2004.24 624.458 2032.46C599.047 2074.29 568.11 2108.62 522.558 2126.39L522.557 2126.39C471.803 2146.34 425.498 2139.98 384.165 2116.69C342.812 2093.39 306.422 2053.13 275.575 2005.28C213.88 1909.59 174.456 1783.69 161.831 1702.94C149.202 1622.17 143.655 1523.37 164.172 1440.75C184.684 1358.15 231.215 1291.8 322.709 1275.69C375.359 1266.41 419.238 1279.19 459.604 1302.61C494.16 1322.65 526.117 1350.47 558.794 1378.92C564.311 1383.72 569.848 1388.54 575.421 1393.34C652.568 1459.83 736.602 1523.05 869.355 1490.73L869.356 1490.73C1000.75 1458.26 1052.94 1358.58 1090.82 1245.6C1099.38 1220.06 1107.21 1193.82 1115.07 1167.53C1115.9 1164.75 1116.73 1161.96 1117.56 1159.18C1126.26 1130.09 1135.08 1101.01 1145.04 1072.76C1164.94 1016.26 1189.38 963.126 1226.41 920.005L1226.03 919.679L1226.41 920.005C1290.3 845.536 1370.1 823.056 1448.18 835.691C1526.29 848.329 1602.71 896.112 1659.74 962.223L1660.12 961.897L1659.75 962.224C1765.45 1084.55 1829.62 1238.66 1858.88 1394.17L1858.97 1394.65L1859.23 1394.61C1885.21 1533.46 1879.44 1671.55 1844.53 1808.67C1819.54 1906.4 1764.5 2000.87 1689.88 2055.16C1652.58 2082.3 1610.39 2099.4 1564.62 2101.85C1518.85 2104.3 1469.46 2092.11 1417.75 2060.63C1375.58 2034.98 1339.37 1999.74 1305.25 1961.3C1288.18 1942.08 1271.64 1922.06 1255.14 1902.04L1253.58 1900.14C1237.6 1880.76 1221.64 1861.39 1205.26 1842.79C1137.6 1765.93 1062.72 1701.85 949.538 1702.06Z" stroke="#F6FEFD"/>
</g>
</svg>
