<svg width="35" height="35" viewBox="0 0 35 35" fill="none" xmlns="http://www.w3.org/2000/svg">
<rect x="0.5" y="0.5" width="34" height="34" rx="17" stroke="url(#paint0_linear_300_1669)"/>
<path opacity="0.1" d="M30.625 17.5C30.625 10.2513 24.7488 4.37501 17.5 4.37501C10.2513 4.37501 4.37504 10.2513 4.37504 17.5C4.37504 24.7487 10.2513 30.625 17.5 30.625V33.5417C8.64047 33.5417 1.45837 26.3596 1.45837 17.5C1.45837 8.64044 8.64047 1.45834 17.5 1.45834C26.3596 1.45834 33.5417 8.64044 33.5417 17.5C33.5417 26.3596 26.3596 33.5417 17.5 33.5417V30.625C24.7488 30.625 30.625 24.7487 30.625 17.5Z" fill="#089981"/>
<path d="M15.8188 7.29169V9.97085H15.3465C14.6287 9.97085 13.9549 10.0988 13.3252 10.3547C12.7082 10.599 12.1666 10.9362 11.7006 11.3665C11.2472 11.7968 10.8821 12.3028 10.605 12.8843C10.3406 13.4542 10.2084 14.0648 10.2084 14.7161C10.2084 15.3791 10.3406 16.0013 10.605 16.5829C10.8821 17.1644 11.2473 17.6762 11.7006 18.1181C12.1666 18.5484 12.7082 18.8916 13.3252 19.1474C13.9549 19.3917 14.6287 19.5138 15.3465 19.5138H19.6535C19.918 19.5138 20.151 19.5545 20.3524 19.6359C20.5539 19.7057 20.6547 19.8743 20.6547 20.1418C20.6547 20.4093 20.5539 20.6419 20.3524 20.8397C20.151 21.0257 19.918 21.1188 19.6535 21.1188H11.7006V24.9045H15.8188V27.7084H19.2946V24.9045H19.6535C20.3588 24.9045 21.0199 24.7824 21.637 24.5382C22.2667 24.2823 22.8145 23.9451 23.2805 23.5264C23.7464 23.0961 24.1116 22.5901 24.3761 22.0086C24.6531 21.427 24.7917 20.8048 24.7917 20.1418C24.7917 19.4905 24.6531 18.8915 24.3761 18.3449C24.1116 17.7983 23.7464 17.3272 23.2805 16.9318C22.8145 16.5363 22.2667 16.2282 21.637 16.0072C21.0199 15.7862 20.3588 15.6757 19.6535 15.6757H15.3465C15.0569 15.6757 14.8113 15.5826 14.6098 15.3965C14.4083 15.2105 14.3075 14.9836 14.3075 14.7161C14.3076 14.4603 14.4083 14.2451 14.6098 14.0707C14.8113 13.8846 15.0569 13.7915 15.3465 13.7915H23.715V9.97085H19.2946V7.29169H15.8188Z" fill="url(#paint1_linear_300_1669)"/>
<defs>
<linearGradient id="paint0_linear_300_1669" x1="-11.7981" y1="-17.0054" x2="10.7137" y2="83.4626" gradientUnits="userSpaceOnUse">
<stop offset="0.129976" stop-color="#59B9A2"/>
<stop offset="0.540686" stop-color="#2C8E77"/>
<stop offset="0.977338" stop-color="#00604D"/>
</linearGradient>
<linearGradient id="paint1_linear_300_1669" x1="5.29252" y1="-2.62813" x2="22.8704" y2="53.4065" gradientUnits="userSpaceOnUse">
<stop offset="0.129976" stop-color="#59B9A2"/>
<stop offset="0.540686" stop-color="#2C8E77"/>
<stop offset="0.977338" stop-color="#00604D"/>
</linearGradient>
</defs>
</svg>
