<svg width="34" height="32" viewBox="0 0 34 32" fill="none" xmlns="http://www.w3.org/2000/svg">
<path d="M29.5863 7.51954C29.5863 8.51719 29.4534 9.48354 29.1992 10.4029C29.1641 10.5281 29.1289 10.6494 29.0898 10.7707C28.1007 13.9319 25.7042 16.471 22.6393 17.6564C22.8738 16.5453 22.995 15.3951 22.995 14.2175C22.995 12.4921 22.7331 10.8294 22.2444 9.26445V9.26054C22.2131 9.15881 22.1779 9.05709 22.1467 8.95537C22.045 8.59935 21.9942 8.21985 21.9942 7.83253C21.9942 5.53598 23.8551 3.67371 26.1499 3.67371C27.4244 3.67371 28.5659 4.24882 29.3283 5.15257C29.3283 5.1604 29.3322 5.17213 29.3361 5.17996C29.5003 5.93113 29.5863 6.71751 29.5863 7.51954Z" fill="url(#paint0_linear_322_219)"/>
<path d="M17.6821 5.13302C17.6821 6.29498 17.295 7.36697 16.6461 8.22768C16.5874 8.30202 16.5288 8.37244 16.4701 8.44677C16.4193 8.51328 16.3646 8.57979 16.3138 8.65021C16.2238 8.76758 16.1378 8.88887 16.0479 9.01015C16.0245 9.04536 15.9971 9.08057 15.9736 9.11578C15.8603 9.27619 15.7508 9.44051 15.6413 9.60483C15.6218 9.63613 15.6023 9.66742 15.5827 9.69481C15.485 9.84739 15.3872 9.99997 15.2973 10.1565C15.27 10.1995 15.2465 10.2425 15.223 10.2856C15.1957 10.3286 15.1722 10.3716 15.1488 10.4147C15.1253 10.4538 15.1018 10.4968 15.0784 10.536C15.0745 10.5399 15.0745 10.5477 15.0706 10.5516C15.0393 10.6064 15.008 10.6651 14.9767 10.7198C14.9416 10.7824 14.9103 10.8411 14.879 10.9037C14.8634 10.935 14.8438 10.9702 14.8282 11.0015C14.8165 11.025 14.8047 11.0485 14.793 11.072C14.7735 11.1033 14.7578 11.1385 14.7422 11.1737C14.7383 11.1815 14.7344 11.1854 14.7305 11.1932C14.6914 11.2676 14.6562 11.3419 14.6171 11.4202C14.5936 11.4632 14.5741 11.5101 14.5506 11.5532C14.5311 11.5962 14.5115 11.6392 14.492 11.6823C14.4724 11.7214 14.4568 11.7605 14.4372 11.7997C14.4177 11.8388 14.4021 11.8779 14.3864 11.917C14.3669 11.9601 14.3473 11.9992 14.3317 12.0422C14.3161 12.0735 14.3043 12.1087 14.2887 12.14C14.23 12.2809 14.1714 12.4217 14.1128 12.5626C14.0932 12.6056 14.0776 12.6486 14.0619 12.6956C13.9408 13.0047 13.8313 13.3176 13.7296 13.6385C13.7179 13.6815 13.7023 13.7245 13.6906 13.7676C13.6632 13.8575 13.6358 13.9475 13.6085 14.0414C13.5967 14.0727 13.5889 14.1079 13.5811 14.1392C13.542 14.2723 13.5068 14.4092 13.4716 14.5461C13.4638 14.5774 13.456 14.6087 13.4482 14.64C13.4286 14.7143 13.413 14.7887 13.3934 14.8591C13.3817 14.9139 13.37 14.9647 13.3543 15.0195C13.3387 15.086 13.3231 15.1564 13.3074 15.223C13.2918 15.2934 13.2762 15.3638 13.2644 15.4342C13.2527 15.4812 13.2449 15.5281 13.2371 15.5751C13.2292 15.6064 13.2253 15.6416 13.2175 15.6729C13.2136 15.6924 13.2097 15.712 13.2058 15.7316C13.198 15.7707 13.1901 15.8098 13.1862 15.8528C13.1784 15.8959 13.1706 15.9389 13.1628 15.9859C13.155 16.0406 13.1432 16.0954 13.1354 16.1463C13.1276 16.1932 13.1198 16.2402 13.1159 16.291C13.108 16.338 13.1002 16.3888 13.0963 16.4358C13.0885 16.4827 13.0846 16.5336 13.0768 16.5805C13.069 16.6275 13.065 16.6783 13.0572 16.7253C13.0533 16.7449 13.0533 16.7644 13.0494 16.7879C9.94534 14.8748 7.87335 11.4436 7.87335 7.52737C7.87335 7.44521 7.87335 7.36697 7.87726 7.28481C7.9359 4.65962 8.92107 2.26136 10.5239 0.414728C11.1143 0.160426 11.7593 0.0156693 12.4395 1.99019e-05H12.4434C12.4474 1.99019e-05 12.4513 1.99019e-05 12.4552 1.99019e-05C12.4865 1.99019e-05 12.5138 1.99019e-05 12.5451 1.99019e-05C15.3833 -0.00780479 17.6821 2.29265 17.6821 5.13302Z" fill="url(#paint1_linear_322_219)"/>
<path d="M24.9575 27.7816C24.9575 29.6673 23.5149 31.2127 21.6736 31.3731C21.6736 31.3731 21.6736 31.3731 21.6697 31.3731C21.5563 31.3809 21.4429 31.3809 21.3295 31.3809C21.2514 31.3809 21.1732 31.3809 21.095 31.377C19.2263 31.244 17.7524 29.683 17.7524 27.7816C17.7524 27.003 17.9714 26.2597 18.421 25.6885C18.5969 25.4655 18.7845 25.2777 18.9839 25.0664C19.8127 24.104 20.532 23.0398 21.1263 21.9052C22.7643 22.9616 24.031 24.5422 24.6916 26.4123C24.7581 26.6001 24.8167 26.7879 24.8715 26.9796V26.9835C24.9262 27.2417 24.9575 27.5077 24.9575 27.7816Z" fill="url(#paint2_linear_322_219)"/>
<path d="M15.0197 27.5507C15.0354 29.0179 14.0893 29.9999 13.9525 30.1368C13.2918 30.798 12.3809 31.2088 11.3723 31.2127H11.3605C11.3488 31.2127 11.341 31.2127 11.3293 31.2127C11.3254 31.2127 11.3214 31.2127 11.3214 31.2127C11.298 31.2127 11.2706 31.2127 11.2472 31.2127C11.2433 31.2127 11.2393 31.2127 11.2354 31.2127C11.2159 31.2127 11.1924 31.2127 11.1729 31.2088C11.1533 31.2088 11.1377 31.2088 11.1182 31.2049C11.0673 31.2009 11.0126 31.197 10.9618 31.1931C10.9344 31.1892 10.907 31.1853 10.8758 31.1814C10.8484 31.1775 10.825 31.1736 10.7976 31.1696C10.778 31.1657 10.7546 31.1618 10.7311 31.1579C10.6764 31.1501 10.6178 31.1383 10.563 31.1266C10.5591 31.1266 10.5552 31.1227 10.5513 31.1227C10.4536 31.0992 10.3558 31.0758 10.262 31.0445C10.2581 31.0445 10.2542 31.0445 10.2503 31.0405C8.75297 30.575 7.6466 29.1861 7.69352 27.5468C7.69742 27.359 7.70915 27.1869 7.73652 27.0147C7.74043 26.9756 7.74825 26.9326 7.75998 26.8935C7.88508 26.4631 8.04145 26.0445 8.2291 25.6415C8.42067 25.2307 8.6435 24.8316 8.88979 24.46C8.95234 24.3661 9.0188 24.2722 9.08526 24.1783C9.12045 24.1313 9.15172 24.0844 9.18691 24.0414C9.22209 23.9944 9.25728 23.9514 9.29246 23.9044C9.32765 23.8575 9.36283 23.8144 9.39802 23.7714C9.4332 23.7284 9.46839 23.6853 9.50748 23.6384C9.54267 23.5953 9.58176 23.5523 9.61694 23.5093C9.62085 23.5054 9.62085 23.5054 9.62476 23.5014C9.65995 23.4623 9.69513 23.4232 9.73032 23.3841C9.7655 23.345 9.80069 23.3058 9.83978 23.2667C9.84369 23.2628 9.8476 23.2589 9.85151 23.255C9.88669 23.2158 9.92579 23.1767 9.96097 23.1415C9.96488 23.1376 9.96488 23.1376 9.96879 23.1337C10.0079 23.0946 10.047 23.0554 10.0861 23.0163C10.1682 22.9381 10.2503 22.8598 10.3324 22.7816C10.4184 22.7033 10.5044 22.629 10.5904 22.5586C10.6334 22.5234 10.6764 22.4842 10.7233 22.449C10.7663 22.4138 10.8132 22.3786 10.8562 22.3434C10.9031 22.3082 10.9461 22.273 10.9931 22.2417C11.0361 22.2104 11.0752 22.1791 11.1182 22.1517C11.126 22.1478 11.1299 22.14 11.1377 22.136C11.1768 22.1047 11.2198 22.0774 11.2589 22.05C11.2706 22.0421 11.2784 22.0343 11.2902 22.0304C11.3293 22.003 11.3684 21.9756 11.4114 21.9522C11.4544 21.9248 11.4935 21.8974 11.5365 21.8739C11.5482 21.8661 11.556 21.8622 11.5677 21.8544C11.6107 21.827 11.6537 21.7996 11.7007 21.7722C11.7007 21.7722 11.7046 21.7722 11.7046 21.7683C11.7476 21.7409 11.7906 21.7174 11.8336 21.69C11.8883 21.6587 11.943 21.6274 11.9978 21.5961C12.0486 21.5688 12.0955 21.5414 12.1463 21.514C12.1463 21.514 12.1502 21.514 12.1502 21.5101C12.1972 21.4827 12.248 21.4592 12.2949 21.4357C12.2988 21.4357 12.2988 21.4357 12.3027 21.4318C12.3535 21.4083 12.4044 21.381 12.4552 21.3575C12.506 21.334 12.5607 21.3066 12.6116 21.2831C12.6467 21.2675 12.6858 21.2518 12.721 21.2362C12.7445 21.2245 12.7679 21.2166 12.7914 21.2049C12.7953 21.2049 12.7992 21.201 12.8031 21.201C12.8461 21.1814 12.8891 21.1658 12.9321 21.1462C12.9869 21.1227 13.0377 21.1032 13.0924 21.0836C13.3113 22.6173 13.7375 24.0805 14.3434 25.4498C14.3551 25.4733 14.4451 25.665 14.5663 25.931C14.6835 26.1853 14.7774 26.3966 14.8399 26.5296C14.9298 26.7643 15.0158 27.1204 15.0197 27.5507Z" fill="url(#paint3_linear_322_219)"/>
<path d="M33.2533 15.888C33.2533 15.935 33.2533 15.9819 33.2533 16.0289C33.2533 16.068 33.2533 16.111 33.2533 16.1502C33.2533 16.1658 33.2533 16.1776 33.2533 16.1932C33.2533 16.2323 33.2533 16.2715 33.2494 16.3106C33.2494 16.3458 33.2494 16.381 33.2455 16.4162C33.2416 16.5101 33.2377 16.604 33.2338 16.694C33.2338 16.7292 33.2298 16.7605 33.2298 16.7957C33.2259 16.874 33.222 16.9522 33.2142 17.0304C33.2103 17.0696 33.2064 17.1126 33.2064 17.1517C33.2025 17.2026 33.1986 17.2574 33.1947 17.3082C33.1908 17.3434 33.1908 17.3786 33.1868 17.4139C33.179 17.4843 33.1751 17.5547 33.1673 17.629C33.1634 17.6564 33.1634 17.6838 33.1595 17.7112C33.1477 17.809 33.136 17.9029 33.1243 18.0007C33.1204 18.0398 33.1126 18.0829 33.1087 18.1259C33.1047 18.1611 33.1008 18.1924 33.0969 18.2276C33.0891 18.2863 33.0813 18.3411 33.0696 18.3998C33.0617 18.4467 33.0578 18.4897 33.05 18.5367C33.0422 18.5876 33.0344 18.6345 33.0266 18.6815C33.0187 18.7245 33.0109 18.7636 33.0031 18.8067C32.9953 18.8497 32.9875 18.8927 32.9796 18.9358C32.9718 18.9827 32.9601 19.0297 32.9523 19.0766C32.9445 19.1196 32.9366 19.1666 32.9249 19.2096C32.9054 19.2996 32.8897 19.3896 32.8702 19.4757C32.8389 19.6087 32.8115 19.7417 32.7764 19.8747C32.7451 20.0077 32.7099 20.1368 32.6747 20.2699C32.663 20.3129 32.6513 20.3559 32.6395 20.399C32.6278 20.442 32.6161 20.485 32.6043 20.5281C32.6043 20.5359 32.6004 20.5398 32.6004 20.5476C32.5809 20.6181 32.5574 20.6885 32.5379 20.7589C32.534 20.7706 32.534 20.7785 32.5301 20.7863C32.5027 20.8724 32.4792 20.9545 32.4519 21.0367C32.448 21.0484 32.4441 21.0602 32.4401 21.068C32.4167 21.1384 32.3932 21.2049 32.3698 21.2753C32.3659 21.2832 32.3659 21.291 32.362 21.2949C32.3463 21.3379 32.3307 21.3771 32.319 21.4201C32.2994 21.4749 32.2799 21.5296 32.2603 21.5844C32.2329 21.6548 32.2056 21.7292 32.1782 21.7996C32.1626 21.8426 32.1469 21.8818 32.1313 21.9248C32.1157 21.9678 32.1 22.007 32.0805 22.05C32.0648 22.093 32.0453 22.1321 32.0297 22.1752C31.9945 22.2573 31.9632 22.3395 31.928 22.4217C31.8772 22.5429 31.8225 22.6681 31.7677 22.7894C31.7443 22.8403 31.7208 22.8951 31.6974 22.9459C31.6856 22.9733 31.67 23.0046 31.6583 23.032C31.6387 23.075 31.6192 23.1181 31.5957 23.1572C31.5762 23.1924 31.5605 23.2276 31.541 23.2667C31.498 23.3528 31.455 23.4389 31.412 23.5249C31.3963 23.5562 31.3768 23.5914 31.3611 23.6227C31.3572 23.6267 31.3572 23.6306 31.3533 23.6384C31.3142 23.7127 31.2751 23.7871 31.2321 23.8614C31.1891 23.9396 31.1461 24.0179 31.1031 24.0922C31.0836 24.1274 31.0601 24.1666 31.0406 24.2018C30.9898 24.2918 30.935 24.3778 30.8842 24.4678C30.8686 24.4952 30.8529 24.5187 30.8373 24.5461C30.8138 24.5852 30.7904 24.6243 30.7669 24.6595C30.7435 24.6986 30.72 24.7339 30.6966 24.773C30.6457 24.8512 30.5988 24.9295 30.548 25.0038C30.5245 25.039 30.505 25.0703 30.4815 25.1055C30.4776 25.1094 30.4737 25.1173 30.4698 25.1212C30.4463 25.1603 30.419 25.1955 30.3955 25.2346C30.1219 25.6376 29.8326 26.0288 29.5237 26.4044C29.5042 26.4318 29.4807 26.4553 29.4612 26.4827C29.426 26.5218 29.3947 26.5609 29.3595 26.604C29.3204 26.6509 29.2774 26.7018 29.2383 26.7487C29.1093 26.8974 28.9803 27.0421 28.8474 27.1869C28.82 27.2143 28.7966 27.2417 28.7692 27.2691C28.6949 27.3473 28.6207 27.4255 28.5464 27.5038C28.5073 27.5468 28.4643 27.5899 28.4213 27.629C28.4095 27.6407 28.4017 27.6525 28.39 27.6603C28.3626 27.6877 28.3353 27.7151 28.304 27.7424C28.2414 27.805 28.1789 27.8637 28.1163 27.9263C28.0851 27.9576 28.0538 27.9889 28.0225 28.0163C27.9248 28.1102 27.8231 28.2002 27.7254 28.2902L27.7215 28.2941C27.6746 28.3371 27.6277 28.3802 27.5808 28.4193C27.5221 28.4701 27.4635 28.521 27.4048 28.5719C27.3696 28.6032 27.3345 28.6306 27.3032 28.6579C27.2328 28.7166 27.1664 28.7714 27.096 28.8301C27.0608 28.8575 27.0295 28.8849 26.9943 28.9083C26.9709 28.924 26.9513 28.9435 26.9279 28.9592C26.8419 29.0296 26.752 29.0961 26.6659 29.1626L26.662 29.1665C26.6112 29.2057 26.5604 29.2448 26.5096 29.28C26.4314 29.3387 26.3532 29.3935 26.275 29.4521C26.2242 29.4874 26.1734 29.5226 26.1225 29.5578C26.0913 29.5813 26.0561 29.6047 26.0209 29.6282C25.9818 29.6556 25.9388 29.683 25.8997 29.7104C25.8489 29.7417 25.802 29.7769 25.7511 29.8082C25.7199 29.8277 25.6847 29.8512 25.6534 29.8708C25.6495 29.8747 25.6456 29.8747 25.6417 29.8786C25.5674 29.9255 25.4931 29.9725 25.4188 30.0194C25.3954 30.0351 25.3719 30.0507 25.3485 30.0625C25.2977 30.0938 25.2468 30.1251 25.1921 30.1564C25.1921 30.1525 25.1921 30.1525 25.1921 30.1485C24.1952 30.8528 22.9989 31.2949 21.701 31.3614C23.5423 31.201 24.9849 29.6517 24.9849 27.7698C24.9849 27.496 24.9536 27.2299 24.895 26.9717V26.9678C24.852 26.7722 24.7894 26.5844 24.7152 26.4005C24.6917 26.3379 24.6682 26.2753 24.6448 26.2127C24.637 26.1892 24.6252 26.1658 24.6174 26.1423C24.594 26.0836 24.5705 26.0249 24.5471 25.9662C24.5353 25.9389 24.5236 25.9115 24.5119 25.8802C24.465 25.7667 24.4141 25.6533 24.3594 25.5437C24.3477 25.5163 24.332 25.4889 24.3203 25.4616C24.2929 25.4068 24.2656 25.352 24.2382 25.2972C24.2304 25.2816 24.2226 25.2659 24.2148 25.2503C24.1796 25.1838 24.1444 25.1212 24.1092 25.0547C24.0975 25.0312 24.0857 25.0077 24.0701 24.9882C24.0662 24.9803 24.0623 24.9725 24.0584 24.9686C24.0466 24.949 24.0349 24.9256 24.0232 24.906C23.988 24.8473 23.9528 24.7886 23.9176 24.7339C23.9059 24.7104 23.8903 24.6869 23.8746 24.6634C23.8434 24.6165 23.816 24.5695 23.7847 24.5226C23.7808 24.5148 23.7769 24.5069 23.7691 24.4991C23.7534 24.4756 23.7378 24.4561 23.7261 24.4326C23.6909 24.3778 23.6518 24.3231 23.6166 24.2683C23.601 24.2487 23.5853 24.2253 23.5736 24.2057C23.5384 24.1548 23.5032 24.1079 23.4641 24.057C23.4446 24.0335 23.429 24.0101 23.4094 23.9827C23.3742 23.9357 23.3351 23.8849 23.296 23.8379C23.2648 23.7988 23.2296 23.7558 23.1983 23.7166C23.1905 23.7049 23.1827 23.6971 23.1709 23.6853C23.1358 23.6423 23.1006 23.5993 23.0654 23.5602C23.0302 23.521 22.995 23.478 22.9598 23.4389C22.952 23.4271 22.9442 23.4193 22.9325 23.4115C22.9012 23.3802 22.8738 23.345 22.8425 23.3137C22.8308 23.3019 22.823 23.2902 22.8113 23.2785C22.78 23.2433 22.7487 23.212 22.7135 23.1767C22.6901 23.1533 22.6627 23.1259 22.6393 23.1024C22.6197 23.0828 22.6041 23.0672 22.5845 23.0476C22.5728 23.0359 22.5611 23.0242 22.5493 23.0124C22.5102 22.9733 22.4712 22.9381 22.4321 22.9029C22.393 22.8677 22.3539 22.8325 22.3148 22.7933C22.2991 22.7777 22.2835 22.7659 22.2679 22.7503C22.2405 22.7229 22.2092 22.6994 22.1819 22.672C22.1662 22.6603 22.1545 22.6486 22.1389 22.6368C22.1271 22.6251 22.1115 22.6134 22.0998 22.6055C22.0528 22.5664 22.0098 22.5273 21.9629 22.4921C21.9434 22.4764 21.9238 22.4569 21.9043 22.4412C21.8847 22.4256 21.8652 22.4099 21.8456 22.3943C21.8261 22.3786 21.8026 22.3591 21.7831 22.3434C21.7596 22.3278 21.7401 22.3082 21.7166 22.2926C21.6775 22.2613 21.6345 22.23 21.5954 22.2026C21.5524 22.1713 21.5094 22.14 21.4664 22.1087C21.4508 22.0969 21.4352 22.0852 21.4195 22.0735C21.3922 22.0539 21.3609 22.0343 21.3335 22.0148C21.314 21.9991 21.2905 21.9874 21.271 21.9717C21.2319 21.9444 21.1889 21.917 21.1459 21.8896C21.1224 21.8739 21.095 21.8583 21.0716 21.8426C21.0325 21.8192 20.9934 21.7918 20.9504 21.7683C20.9426 21.7644 20.9348 21.7605 20.9269 21.7526C20.8957 21.7331 20.8605 21.7135 20.8292 21.694C20.7784 21.6627 20.7236 21.6314 20.6728 21.604C20.6337 21.5805 20.5946 21.5609 20.5516 21.5375C20.5204 21.5218 20.4891 21.5062 20.4578 21.4866C20.4344 21.4749 20.4148 21.4631 20.3913 21.4514C20.3562 21.4318 20.321 21.4162 20.2858 21.3966C20.2467 21.3771 20.2076 21.3575 20.1685 21.3379C20.1451 21.3262 20.1216 21.3145 20.0981 21.3027C20.0708 21.291 20.0473 21.2793 20.02 21.2675C20.0043 21.2597 19.9887 21.2519 19.973 21.248C19.9339 21.2284 19.8949 21.2127 19.8558 21.1971C19.8088 21.1775 19.7619 21.158 19.715 21.1384C19.672 21.1188 19.6251 21.1032 19.5821 21.0836C19.5704 21.0797 19.5586 21.0758 19.5469 21.0719C19.5078 21.0562 19.4687 21.0406 19.4257 21.025C19.3827 21.0093 19.3397 20.9937 19.2928 20.978C19.1833 20.9389 19.0739 20.9037 18.9605 20.8685C18.9214 20.8567 18.8784 20.8411 18.8354 20.8293C18.7924 20.8176 18.7455 20.8019 18.6986 20.7902C18.6908 20.7863 18.679 20.7863 18.6712 20.7824C18.6282 20.7707 18.5813 20.7589 18.5383 20.7472C18.5344 20.7472 18.5344 20.7472 18.5305 20.7472C18.4836 20.7354 18.4366 20.7237 18.3858 20.712C18.3389 20.7002 18.292 20.6924 18.2451 20.6807C18.2255 20.6768 18.206 20.6728 18.1864 20.6689C18.1552 20.6611 18.1239 20.6572 18.0965 20.6494C18.077 20.6455 18.0574 20.6415 18.0379 20.6376C18.0183 20.6337 17.9988 20.6298 17.9792 20.6259C17.9519 20.622 17.9206 20.6142 17.8932 20.6102C17.7877 20.5907 17.686 20.575 17.5766 20.5594C17.5336 20.5555 17.4906 20.5476 17.4476 20.5437H17.4437C17.3967 20.5359 17.3537 20.532 17.3068 20.5281C17.299 20.5281 17.2873 20.5281 17.2795 20.5242C17.2325 20.5203 17.1856 20.5124 17.1348 20.5085C17.084 20.5046 17.0332 20.5007 16.9784 20.4968C16.9472 20.4929 16.9198 20.4929 16.8885 20.4929C16.8572 20.489 16.826 20.489 16.7908 20.485C16.7478 20.4811 16.7048 20.4811 16.6579 20.4811C16.6461 20.4811 16.6344 20.4811 16.6227 20.4811C16.5758 20.4811 16.5289 20.4772 16.478 20.4772C16.4233 20.4772 16.3686 20.4772 16.3138 20.4772C16.2865 20.4772 16.2591 20.4772 16.2317 20.4772C16.2005 20.4772 16.1731 20.4772 16.1418 20.4772C16.1027 20.4772 16.0636 20.4772 16.0245 20.4811C15.9894 20.4811 15.9542 20.485 15.9229 20.485C15.8877 20.485 15.8564 20.489 15.8213 20.489C15.7196 20.4929 15.618 20.5007 15.5202 20.5085C15.485 20.5124 15.4459 20.5163 15.4108 20.5203C15.313 20.5281 15.2153 20.5398 15.1215 20.5555C15.0902 20.5594 15.055 20.5633 15.0237 20.5711C14.9925 20.575 14.9612 20.5789 14.9299 20.5868C14.926 20.5868 14.9221 20.5868 14.9182 20.5868C14.8908 20.5907 14.8674 20.5946 14.84 20.5985C14.7383 20.6181 14.6328 20.6337 14.5311 20.6572C14.4999 20.665 14.4647 20.6689 14.4334 20.6768C14.4021 20.6846 14.367 20.6924 14.3357 20.6963C14.3122 20.7002 14.2888 20.7081 14.2692 20.712C14.2419 20.7198 14.2145 20.7237 14.1871 20.7315C14.1715 20.7354 14.1558 20.7394 14.1441 20.7433C14.1128 20.7511 14.0816 20.7589 14.0464 20.7667C13.89 20.8059 13.7375 20.8528 13.5851 20.8998C13.5538 20.9115 13.5225 20.9193 13.4912 20.9311C13.3622 20.9741 13.2371 21.021 13.112 21.068C13.0573 21.0875 13.0026 21.111 12.9517 21.1306C12.9087 21.1462 12.8657 21.1658 12.8227 21.1854C12.8188 21.1854 12.8149 21.1893 12.811 21.1893C12.7876 21.201 12.7641 21.2088 12.7406 21.2206C12.7055 21.2362 12.6664 21.2519 12.6312 21.2675C12.5804 21.291 12.5256 21.3145 12.4748 21.3419C12.424 21.3653 12.3732 21.3927 12.3223 21.4162C12.3184 21.4162 12.3184 21.4201 12.3145 21.4201C12.2637 21.4436 12.2168 21.471 12.1699 21.4944C12.1699 21.4944 12.166 21.4944 12.166 21.4983C12.1151 21.5257 12.0682 21.5531 12.0174 21.5805C11.9627 21.6118 11.9079 21.6431 11.8532 21.6744C11.8102 21.6979 11.7672 21.7253 11.7242 21.7526C11.7203 21.7526 11.7203 21.7566 11.7203 21.7566C11.6773 21.7839 11.6304 21.8113 11.5874 21.8387C11.5756 21.8465 11.5678 21.8505 11.5561 21.8583C11.5131 21.8857 11.474 21.9091 11.431 21.9365C11.3919 21.9639 11.3528 21.9913 11.3098 22.0148C11.2981 22.0226 11.2902 22.0304 11.2785 22.0343C11.2355 22.0617 11.1964 22.093 11.1573 22.1204C11.1495 22.1243 11.1417 22.1321 11.1378 22.1361C11.0948 22.1674 11.0518 22.1947 11.0127 22.226C10.9658 22.2613 10.9228 22.2926 10.8759 22.3278C10.8328 22.363 10.7859 22.3982 10.7429 22.4334C10.6999 22.4686 10.653 22.5038 10.61 22.5429C10.524 22.6173 10.438 22.6916 10.352 22.7659C10.2699 22.8403 10.1839 22.9185 10.1057 23.0007C10.0666 23.0398 10.0275 23.0789 9.98841 23.1181C9.98451 23.122 9.98451 23.122 9.9806 23.1259C9.94541 23.165 9.90632 23.2041 9.87113 23.2393C9.86722 23.2433 9.86331 23.2472 9.8594 23.2511C9.82422 23.2902 9.78903 23.3293 9.74994 23.3684C9.71476 23.4076 9.67957 23.4467 9.64439 23.4858C9.64048 23.4897 9.64048 23.4936 9.63657 23.4936C9.59747 23.5367 9.56229 23.5797 9.52711 23.6227C9.49192 23.6658 9.45283 23.7088 9.41764 23.7558C9.38246 23.7988 9.34727 23.8458 9.31209 23.8888C9.2769 23.9357 9.24172 23.9788 9.20653 24.0257C9.17135 24.0727 9.13616 24.1157 9.10489 24.1627C9.03843 24.2565 8.97197 24.3504 8.90942 24.4443C8.65922 24.8199 8.44029 25.2151 8.24873 25.6259C8.20182 25.7315 8.1549 25.8332 8.1119 25.9389C8.1119 25.9389 8.1119 25.9389 8.10799 25.9428C8.10799 25.9467 8.10408 25.9506 8.10017 25.9584C8.10017 25.9623 8.09626 25.9702 8.09235 25.9741C8.00635 26.1892 7.62713 27.2456 7.76396 28.2158C7.80697 28.4662 7.87733 28.7049 7.97116 28.9357C8.37774 29.9216 9.22999 30.6924 10.2699 31.0132C10.3676 31.0445 10.4693 31.0719 10.5709 31.0914C10.5748 31.0914 10.5787 31.0953 10.5826 31.0953C10.6374 31.1071 10.696 31.1188 10.7507 31.1266C10.7742 31.1305 10.7938 31.1345 10.8172 31.1384C10.8446 31.1423 10.868 31.1462 10.8954 31.1501C10.9228 31.154 10.9501 31.1579 10.9814 31.1618C11.0322 31.1658 11.087 31.1736 11.1378 31.1736C11.1573 31.1736 11.173 31.1775 11.1925 31.1775C11.2121 31.1775 11.2355 31.1814 11.2551 31.1814C9.80076 31.1423 8.47157 30.5945 7.43948 29.7143C7.43948 29.7182 7.43948 29.7182 7.43948 29.7221C2.95148 26.7683 -0.00012207 21.6744 -0.00012207 15.888C-0.00012207 8.85364 4.35887 2.84037 10.524 0.406891C9.72258 1.3302 9.07752 2.39436 8.62012 3.55242C8.16663 4.71047 7.9047 5.96633 7.87734 7.28088C7.87734 7.36304 7.87343 7.44129 7.87343 7.52345C7.87343 11.4397 9.94541 14.8708 13.0495 16.784C14.7032 17.8012 16.65 18.388 18.7338 18.388C18.7885 18.388 18.8432 18.388 18.898 18.388C18.9097 18.388 18.9175 18.388 18.9292 18.388C19.0426 18.388 19.1521 18.3841 19.2615 18.3763C19.2772 18.3763 19.2889 18.3763 19.3045 18.3763C19.3514 18.3724 19.3944 18.3724 19.4414 18.3685C19.4492 18.3685 19.457 18.3685 19.4648 18.3685C19.5391 18.3646 19.6173 18.3567 19.6916 18.3489C19.7307 18.345 19.7658 18.3411 19.8049 18.3372C19.8362 18.3333 19.8675 18.3293 19.9027 18.3254C19.9105 18.3254 19.9183 18.3254 19.9261 18.3215C19.9613 18.3176 19.9965 18.3137 20.0317 18.3098C20.0669 18.3059 20.1021 18.302 20.1372 18.298C20.1881 18.2902 20.2389 18.2824 20.2897 18.2785C20.3132 18.2746 20.3327 18.2707 20.3562 18.2707C20.3874 18.2667 20.4226 18.2589 20.4578 18.255C20.493 18.2511 20.5282 18.2433 20.5595 18.2394C20.7158 18.212 20.8683 18.1846 21.0208 18.1494C21.0481 18.1416 21.0755 18.1376 21.1029 18.1298C21.1459 18.1181 21.1928 18.1103 21.2358 18.0985C21.3335 18.075 21.4313 18.0516 21.529 18.0242C21.5564 18.0164 21.5837 18.0085 21.6111 18.0007C21.7127 17.9733 21.8144 17.942 21.916 17.9107C21.9551 17.899 21.9942 17.8872 22.0372 17.8716C22.0998 17.852 22.1662 17.8286 22.2288 17.809C22.2796 17.7934 22.3265 17.7738 22.3773 17.7581C22.4321 17.7386 22.4829 17.719 22.5376 17.6995C22.5728 17.6877 22.608 17.6721 22.6471 17.6564C25.716 16.471 28.1085 13.9319 29.0976 10.7707C29.1367 10.6494 29.1719 10.5242 29.2071 10.4029C29.4612 9.48353 29.5941 8.51718 29.5941 7.51953C29.5941 6.71359 29.5081 5.93112 29.34 5.17604C29.3361 5.16822 29.3361 5.15648 29.3322 5.14865C29.3439 5.1643 29.3595 5.17995 29.3713 5.1956C31.7912 8.08682 33.2533 11.8192 33.2533 15.888Z" fill="url(#paint4_linear_322_219)"/>
<path d="M8.0885 25.9856C8.09236 25.9779 8.09236 25.974 8.09621 25.9702C8.09621 25.974 8.09236 25.9779 8.0885 25.9856Z" fill="url(#paint5_linear_322_219)"/>
<path d="M8.10032 25.9623C8.10032 25.9623 8.10032 25.9623 8.09619 25.9665L8.10032 25.9623Z" fill="url(#paint6_linear_322_219)"/>
<defs>
<linearGradient id="paint0_linear_322_219" x1="30.7245" y1="3.04792" x2="21.4794" y2="17.8395" gradientUnits="userSpaceOnUse">
<stop offset="0.113074" stop-color="#97FCE4"/>
<stop offset="0.31147" stop-color="#59B9A2"/>
<stop offset="0.774773" stop-color="#064639"/>
</linearGradient>
<linearGradient id="paint1_linear_322_219" x1="18.5333" y1="-0.681061" x2="7.29297" y2="14.9305" gradientUnits="userSpaceOnUse">
<stop offset="0.113074" stop-color="#97FCE4"/>
<stop offset="0.31147" stop-color="#59B9A2"/>
<stop offset="0.774773" stop-color="#064639"/>
</linearGradient>
<linearGradient id="paint2_linear_322_219" x1="19.1567" y1="33.7812" x2="23.6052" y2="21.606" gradientUnits="userSpaceOnUse">
<stop stop-color="#97FCE4"/>
<stop offset="0.239" stop-color="#59B9A2"/>
<stop offset="0.4176" stop-color="#28826F"/>
<stop offset="0.5214" stop-color="#106756"/>
<stop offset="0.6061" stop-color="#0D5C4D"/>
<stop offset="0.8132" stop-color="#064639"/>
</linearGradient>
<linearGradient id="paint3_linear_322_219" x1="15.1563" y1="32.0467" x2="8.0581" y2="21.3691" gradientUnits="userSpaceOnUse">
<stop stop-color="#97FCE4"/>
<stop offset="0.1869" stop-color="#59B9A2"/>
<stop offset="0.2366" stop-color="#4AA893"/>
<stop offset="0.3582" stop-color="#2B8572"/>
<stop offset="0.4574" stop-color="#176F5D"/>
<stop offset="0.5214" stop-color="#106756"/>
<stop offset="0.6061" stop-color="#0D5C4D"/>
<stop offset="0.8132" stop-color="#064639"/>
</linearGradient>
<linearGradient id="paint4_linear_322_219" x1="14.1278" y1="-0.155837" x2="20.1818" y2="38.6631" gradientUnits="userSpaceOnUse">
<stop offset="0.2867" stop-color="#97FCE4"/>
<stop offset="0.2971" stop-color="#94F8E0"/>
<stop offset="0.4653" stop-color="#65C1AC"/>
<stop offset="0.6213" stop-color="#3F9582"/>
<stop offset="0.7604" stop-color="#247564"/>
<stop offset="0.8774" stop-color="#146252"/>
<stop offset="0.9583" stop-color="#0E5B4B"/>
</linearGradient>
<linearGradient id="paint5_linear_322_219" x1="8.09231" y1="25.9682" x2="8.09472" y2="25.9837" gradientUnits="userSpaceOnUse">
<stop offset="0.2867" stop-color="#97FCE4"/>
<stop offset="0.9583" stop-color="#0E5B4B"/>
</linearGradient>
<linearGradient id="paint6_linear_322_219" x1="8.09781" y1="25.9618" x2="8.0987" y2="25.9674" gradientUnits="userSpaceOnUse">
<stop offset="0.2867" stop-color="#97FCE4"/>
<stop offset="0.9583" stop-color="#0E5B4B"/>
</linearGradient>
</defs>
</svg>
